<mxfile host="app.diagrams.net" agent="Mozilla/5.0 (Macintosh; Intel Mac OS X 10_15_7) AppleWebKit/537.36 (KHTML, like Gecko) Chrome/136.0.0.0 Safari/537.36" version="27.0.3">
  <diagram name="第 1 页" id="VOkIYmLCU_UH092S_XZs">
    <mxGraphModel dx="2296" dy="1251" grid="1" gridSize="10" guides="1" tooltips="1" connect="1" arrows="1" fold="1" page="1" pageScale="1" pageWidth="945" pageHeight="462" math="0" shadow="0">
      <root>
        <mxCell id="0" />
        <mxCell id="1" parent="0" />
        <mxCell id="xZLbCJLQWq1B9pXjwHZI-57" style="edgeStyle=orthogonalEdgeStyle;rounded=0;orthogonalLoop=1;jettySize=auto;html=1;exitX=0.5;exitY=1;exitDx=0;exitDy=0;entryX=0.25;entryY=0;entryDx=0;entryDy=0;strokeColor=#f21c1c;fontSize=16;fontStyle=1;strokeWidth=3;dashed=1;dashPattern=1 2;movable=1;resizable=1;rotatable=1;deletable=1;editable=1;locked=0;connectable=1;" edge="1" parent="1" source="xZLbCJLQWq1B9pXjwHZI-64" target="xZLbCJLQWq1B9pXjwHZI-75">
          <mxGeometry relative="1" as="geometry">
            <mxPoint x="495" y="240" as="sourcePoint" />
          </mxGeometry>
        </mxCell>
        <mxCell id="xZLbCJLQWq1B9pXjwHZI-58" style="edgeStyle=orthogonalEdgeStyle;rounded=0;orthogonalLoop=1;jettySize=auto;html=1;exitX=0.75;exitY=1;exitDx=0;exitDy=0;exitPerimeter=0;entryX=0.75;entryY=0;entryDx=0;entryDy=0;dashed=1;dashPattern=1 2;strokeWidth=3;strokeColor=#FF0000;movable=1;resizable=1;rotatable=1;deletable=1;editable=1;locked=0;connectable=1;" edge="1" parent="1">
          <mxGeometry relative="1" as="geometry">
            <mxPoint x="557.5" y="230" as="sourcePoint" />
            <mxPoint x="532.5" y="630" as="targetPoint" />
            <Array as="points">
              <mxPoint x="560" y="230" />
              <mxPoint x="560" y="430" />
              <mxPoint x="533" y="430" />
            </Array>
          </mxGeometry>
        </mxCell>
        <mxCell id="xZLbCJLQWq1B9pXjwHZI-59" style="edgeStyle=orthogonalEdgeStyle;rounded=0;orthogonalLoop=1;jettySize=auto;html=1;exitX=1;exitY=0.25;exitDx=0;exitDy=0;exitPerimeter=0;entryX=0;entryY=0.5;entryDx=0;entryDy=0;dashed=1;dashPattern=1 2;strokeWidth=3;strokeColor=#FF0000;movable=1;resizable=1;rotatable=1;deletable=1;editable=1;locked=0;connectable=1;" edge="1" parent="1" source="xZLbCJLQWq1B9pXjwHZI-64" target="xZLbCJLQWq1B9pXjwHZI-84">
          <mxGeometry relative="1" as="geometry" />
        </mxCell>
        <mxCell id="xZLbCJLQWq1B9pXjwHZI-60" style="edgeStyle=orthogonalEdgeStyle;rounded=0;orthogonalLoop=1;jettySize=auto;html=1;exitX=1;exitY=0.38;exitDx=0;exitDy=0;exitPerimeter=0;entryX=0;entryY=0.25;entryDx=0;entryDy=0;dashed=1;dashPattern=1 2;strokeWidth=3;strokeColor=#FF0000;movable=1;resizable=1;rotatable=1;deletable=1;editable=1;locked=0;connectable=1;" edge="1" parent="1" source="xZLbCJLQWq1B9pXjwHZI-64" target="xZLbCJLQWq1B9pXjwHZI-85">
          <mxGeometry relative="1" as="geometry" />
        </mxCell>
        <mxCell id="xZLbCJLQWq1B9pXjwHZI-61" style="edgeStyle=orthogonalEdgeStyle;rounded=0;orthogonalLoop=1;jettySize=auto;html=1;exitX=1;exitY=0.5;exitDx=0;exitDy=0;exitPerimeter=0;entryX=0;entryY=0.5;entryDx=0;entryDy=0;dashed=1;dashPattern=1 2;strokeWidth=3;strokeColor=#FF0000;movable=1;resizable=1;rotatable=1;deletable=1;editable=1;locked=0;connectable=1;" edge="1" parent="1" source="xZLbCJLQWq1B9pXjwHZI-64" target="xZLbCJLQWq1B9pXjwHZI-86">
          <mxGeometry relative="1" as="geometry" />
        </mxCell>
        <mxCell id="xZLbCJLQWq1B9pXjwHZI-62" style="edgeStyle=orthogonalEdgeStyle;rounded=0;orthogonalLoop=1;jettySize=auto;html=1;exitX=1;exitY=0.63;exitDx=0;exitDy=0;exitPerimeter=0;entryX=0;entryY=0.5;entryDx=0;entryDy=0;dashed=1;dashPattern=1 2;strokeWidth=3;strokeColor=#FF0000;movable=1;resizable=1;rotatable=1;deletable=1;editable=1;locked=0;connectable=1;" edge="1" parent="1" source="xZLbCJLQWq1B9pXjwHZI-64" target="xZLbCJLQWq1B9pXjwHZI-103">
          <mxGeometry relative="1" as="geometry" />
        </mxCell>
        <mxCell id="xZLbCJLQWq1B9pXjwHZI-63" style="edgeStyle=orthogonalEdgeStyle;rounded=0;orthogonalLoop=1;jettySize=auto;html=1;exitX=1;exitY=0.75;exitDx=0;exitDy=0;exitPerimeter=0;entryX=0;entryY=0.5;entryDx=0;entryDy=0;dashed=1;dashPattern=1 2;strokeWidth=3;strokeColor=#FF0000;movable=1;resizable=1;rotatable=1;deletable=1;editable=1;locked=0;connectable=1;" edge="1" parent="1" source="xZLbCJLQWq1B9pXjwHZI-64" target="xZLbCJLQWq1B9pXjwHZI-104">
          <mxGeometry relative="1" as="geometry" />
        </mxCell>
        <mxCell id="xZLbCJLQWq1B9pXjwHZI-64" value="Control unit" style="rounded=1;whiteSpace=wrap;html=1;fontSize=16;points=[[0,0,0,0,0],[0,0.25,0,0,0],[0,0.5,0,0,0],[0,0.75,0,0,0],[0,1,0,0,0],[0.25,0,0,0,0],[0.25,1,0,0,0],[0.5,0,0,0,0],[0.5,1,0,0,0],[0.75,0,0,0,0],[0.75,1,0,0,0],[1,0,0,0,0],[1,0.13,0,0,0],[1,0.25,0,0,0],[1,0.38,0,0,0],[1,0.5,0,0,0],[1,0.63,0,0,0],[1,0.75,0,0,0],[1,0.87,0,0,0],[1,1,0,0,0]];fontStyle=1;movable=1;resizable=1;rotatable=1;deletable=1;editable=1;locked=0;connectable=1;" vertex="1" parent="1">
          <mxGeometry x="387.5" y="20" width="210" height="210" as="geometry" />
        </mxCell>
        <mxCell id="xZLbCJLQWq1B9pXjwHZI-65" style="edgeStyle=orthogonalEdgeStyle;rounded=0;orthogonalLoop=1;jettySize=auto;html=1;exitX=1;exitY=0.5;exitDx=0;exitDy=0;entryX=0;entryY=0.5;entryDx=0;entryDy=0;fontSize=16;fontStyle=1;movable=1;resizable=1;rotatable=1;deletable=1;editable=1;locked=0;connectable=1;" edge="1" parent="1" source="xZLbCJLQWq1B9pXjwHZI-90" target="xZLbCJLQWq1B9pXjwHZI-64">
          <mxGeometry relative="1" as="geometry">
            <Array as="points">
              <mxPoint x="350" y="260" />
              <mxPoint x="350" y="125" />
            </Array>
          </mxGeometry>
        </mxCell>
        <mxCell id="xZLbCJLQWq1B9pXjwHZI-66" style="edgeStyle=orthogonalEdgeStyle;rounded=0;orthogonalLoop=1;jettySize=auto;html=1;exitX=1;exitY=0.25;exitDx=0;exitDy=0;entryX=0;entryY=0.5;entryDx=0;entryDy=0;movable=1;resizable=1;rotatable=1;deletable=1;editable=1;locked=0;connectable=1;" edge="1" parent="1" source="xZLbCJLQWq1B9pXjwHZI-67" target="xZLbCJLQWq1B9pXjwHZI-82">
          <mxGeometry relative="1" as="geometry">
            <Array as="points">
              <mxPoint x="617.5" y="673" />
              <mxPoint x="617.5" y="560" />
            </Array>
          </mxGeometry>
        </mxCell>
        <mxCell id="xZLbCJLQWq1B9pXjwHZI-67" value="GPRs" style="rounded=1;whiteSpace=wrap;html=1;fontSize=16;fontStyle=1;movable=1;resizable=1;rotatable=1;deletable=1;editable=1;locked=0;connectable=1;" vertex="1" parent="1">
          <mxGeometry x="377.5" y="630" width="190" height="170" as="geometry" />
        </mxCell>
        <mxCell id="xZLbCJLQWq1B9pXjwHZI-68" value="Rd" style="text;html=1;align=center;verticalAlign=middle;whiteSpace=wrap;rounded=0;fontSize=16;fontStyle=1;movable=1;resizable=1;rotatable=1;deletable=1;editable=1;locked=0;connectable=1;" vertex="1" parent="1">
          <mxGeometry x="377.5" y="647.5" width="60" height="30" as="geometry" />
        </mxCell>
        <mxCell id="xZLbCJLQWq1B9pXjwHZI-69" value="Rs1" style="text;html=1;align=center;verticalAlign=middle;whiteSpace=wrap;rounded=0;fontSize=16;fontStyle=1;movable=1;resizable=1;rotatable=1;deletable=1;editable=1;locked=0;connectable=1;" vertex="1" parent="1">
          <mxGeometry x="377.5" y="695" width="60" height="30" as="geometry" />
        </mxCell>
        <mxCell id="xZLbCJLQWq1B9pXjwHZI-70" value="Rs2" style="text;html=1;align=center;verticalAlign=middle;whiteSpace=wrap;rounded=0;fontSize=16;fontStyle=1;movable=1;resizable=1;rotatable=1;deletable=1;editable=1;locked=0;connectable=1;" vertex="1" parent="1">
          <mxGeometry x="377.5" y="740" width="60" height="30" as="geometry" />
        </mxCell>
        <mxCell id="xZLbCJLQWq1B9pXjwHZI-71" value="Rs2_data" style="text;html=1;align=center;verticalAlign=middle;whiteSpace=wrap;rounded=0;fontSize=16;fontStyle=1;movable=1;resizable=1;rotatable=1;deletable=1;editable=1;locked=0;connectable=1;" vertex="1" parent="1">
          <mxGeometry x="607.5" y="730" width="60" height="30" as="geometry" />
        </mxCell>
        <mxCell id="xZLbCJLQWq1B9pXjwHZI-72" value="Rs1_data" style="text;html=1;align=center;verticalAlign=middle;whiteSpace=wrap;rounded=0;fontSize=16;fontStyle=1;movable=1;resizable=1;rotatable=1;deletable=1;editable=1;locked=0;connectable=1;" vertex="1" parent="1">
          <mxGeometry x="577.5" y="670" width="60" height="30" as="geometry" />
        </mxCell>
        <mxCell id="xZLbCJLQWq1B9pXjwHZI-73" style="edgeStyle=orthogonalEdgeStyle;rounded=0;orthogonalLoop=1;jettySize=auto;html=1;exitX=1;exitY=0.5;exitDx=0;exitDy=0;fontSize=16;entryX=0;entryY=0.5;entryDx=0;entryDy=0;fontStyle=1;movable=1;resizable=1;rotatable=1;deletable=1;editable=1;locked=0;connectable=1;" edge="1" parent="1" source="xZLbCJLQWq1B9pXjwHZI-75">
          <mxGeometry relative="1" as="geometry">
            <mxPoint x="720" y="520" as="targetPoint" />
          </mxGeometry>
        </mxCell>
        <mxCell id="xZLbCJLQWq1B9pXjwHZI-74" style="edgeStyle=orthogonalEdgeStyle;rounded=0;orthogonalLoop=1;jettySize=auto;html=1;exitX=1;exitY=0.5;exitDx=0;exitDy=0;entryX=1;entryY=0.25;entryDx=0;entryDy=0;movable=1;resizable=1;rotatable=1;deletable=1;editable=1;locked=0;connectable=1;" edge="1" parent="1" source="xZLbCJLQWq1B9pXjwHZI-75" target="xZLbCJLQWq1B9pXjwHZI-95">
          <mxGeometry relative="1" as="geometry">
            <Array as="points">
              <mxPoint x="637.5" y="350" />
              <mxPoint x="637.5" y="474" />
            </Array>
          </mxGeometry>
        </mxCell>
        <mxCell id="xZLbCJLQWq1B9pXjwHZI-75" value="EXP" style="rounded=1;whiteSpace=wrap;html=1;fontSize=16;fontStyle=1;movable=1;resizable=1;rotatable=1;deletable=1;editable=1;locked=0;connectable=1;" vertex="1" parent="1">
          <mxGeometry x="447.5" y="311.25" width="150" height="77.5" as="geometry" />
        </mxCell>
        <mxCell id="xZLbCJLQWq1B9pXjwHZI-76" value="ExtOp" style="text;html=1;align=center;verticalAlign=middle;resizable=1;points=[];autosize=1;strokeColor=none;fillColor=none;fontColor=#ee1717;fontSize=16;fontStyle=1;movable=1;rotatable=1;deletable=1;editable=1;locked=0;connectable=1;" vertex="1" parent="1">
          <mxGeometry x="490" y="280" width="70" height="30" as="geometry" />
        </mxCell>
        <mxCell id="xZLbCJLQWq1B9pXjwHZI-77" value="imm" style="text;html=1;align=center;verticalAlign=middle;whiteSpace=wrap;rounded=0;fontSize=16;fontStyle=1;movable=1;resizable=1;rotatable=1;deletable=1;editable=1;locked=0;connectable=1;" vertex="1" parent="1">
          <mxGeometry x="620" y="322.5" width="60" height="30" as="geometry" />
        </mxCell>
        <mxCell id="xZLbCJLQWq1B9pXjwHZI-78" style="edgeStyle=orthogonalEdgeStyle;rounded=0;orthogonalLoop=1;jettySize=auto;html=1;exitX=1;exitY=0.5;exitDx=0;exitDy=0;entryX=0;entryY=0.25;entryDx=0;entryDy=0;fontSize=16;fontStyle=1;movable=1;resizable=1;rotatable=1;deletable=1;editable=1;locked=0;connectable=1;" edge="1" parent="1" source="xZLbCJLQWq1B9pXjwHZI-90" target="xZLbCJLQWq1B9pXjwHZI-75">
          <mxGeometry relative="1" as="geometry">
            <Array as="points">
              <mxPoint x="350" y="260" />
              <mxPoint x="350" y="331" />
            </Array>
          </mxGeometry>
        </mxCell>
        <mxCell id="xZLbCJLQWq1B9pXjwHZI-79" value="" style="rounded=0;whiteSpace=wrap;html=1;fontSize=16;fillColor=#e1d5e7;strokeColor=#9673a6;container=0;fontStyle=1;movable=1;resizable=1;rotatable=1;deletable=1;editable=1;locked=0;connectable=1;" vertex="1" parent="1">
          <mxGeometry x="717.5" y="40" width="80" height="770" as="geometry" />
        </mxCell>
        <mxCell id="xZLbCJLQWq1B9pXjwHZI-80" value="ID/EX" style="text;html=1;align=center;verticalAlign=middle;resizable=1;points=[];autosize=1;strokeColor=none;fillColor=none;fontSize=16;container=0;fontStyle=1;movable=1;rotatable=1;deletable=1;editable=1;locked=0;connectable=1;" vertex="1" parent="1">
          <mxGeometry x="722.5" width="70" height="30" as="geometry" />
        </mxCell>
        <mxCell id="xZLbCJLQWq1B9pXjwHZI-81" value="imm" style="rounded=0;whiteSpace=wrap;html=1;fontSize=16;fillColor=#d5e8d4;strokeColor=#82b366;container=0;fontStyle=1;movable=1;resizable=1;rotatable=1;deletable=1;editable=1;locked=0;connectable=1;" vertex="1" parent="1">
          <mxGeometry x="718.5" y="335" width="80" height="30" as="geometry" />
        </mxCell>
        <mxCell id="xZLbCJLQWq1B9pXjwHZI-82" value="Rs1" style="rounded=0;whiteSpace=wrap;html=1;fontSize=16;fillColor=#d5e8d4;strokeColor=#82b366;container=0;fontStyle=1;movable=1;resizable=1;rotatable=1;deletable=1;editable=1;locked=0;connectable=1;" vertex="1" parent="1">
          <mxGeometry x="716" y="545" width="80" height="30" as="geometry" />
        </mxCell>
        <mxCell id="xZLbCJLQWq1B9pXjwHZI-83" value="PC" style="rounded=0;whiteSpace=wrap;html=1;fontSize=16;fillColor=#d5e8d4;strokeColor=#82b366;container=0;fontStyle=1;movable=1;resizable=1;rotatable=1;deletable=1;editable=1;locked=0;connectable=1;" vertex="1" parent="1">
          <mxGeometry x="718.5" y="485" width="80" height="30" as="geometry" />
        </mxCell>
        <mxCell id="xZLbCJLQWq1B9pXjwHZI-84" value="&lt;span style=&quot;font-size: 16px;&quot;&gt;&lt;font style=&quot;font-size: 16px;&quot;&gt;MemWe&lt;/font&gt;&lt;/span&gt;" style="rounded=0;whiteSpace=wrap;html=1;fillColor=#e51400;strokeColor=#B20000;fontColor=#ffffff;fontSize=16;fontStyle=1;movable=1;resizable=1;rotatable=1;deletable=1;editable=1;locked=0;connectable=1;" vertex="1" parent="1">
          <mxGeometry x="716" y="50" width="80" height="30" as="geometry" />
        </mxCell>
        <mxCell id="xZLbCJLQWq1B9pXjwHZI-85" value="MemtoReg" style="rounded=0;whiteSpace=wrap;html=1;fillColor=#e51400;strokeColor=#B20000;fontColor=#ffffff;fontSize=16;fontStyle=1;movable=1;resizable=1;rotatable=1;deletable=1;editable=1;locked=0;connectable=1;" vertex="1" parent="1">
          <mxGeometry x="716" y="80" width="80" height="30" as="geometry" />
        </mxCell>
        <mxCell id="xZLbCJLQWq1B9pXjwHZI-86" value="&lt;span style=&quot;font-size: 16px;&quot;&gt;&lt;font style=&quot;font-size: 16px;&quot;&gt;AluOp&lt;/font&gt;&lt;/span&gt;" style="rounded=0;whiteSpace=wrap;html=1;fillColor=#e51400;strokeColor=#B20000;fontColor=#ffffff;fontSize=16;fontStyle=1;movable=1;resizable=1;rotatable=1;deletable=1;editable=1;locked=0;connectable=1;" vertex="1" parent="1">
          <mxGeometry x="716" y="110" width="80" height="30" as="geometry" />
        </mxCell>
        <mxCell id="xZLbCJLQWq1B9pXjwHZI-87" value="RegWe" style="text;html=1;align=center;verticalAlign=middle;resizable=1;points=[];autosize=1;strokeColor=none;fillColor=none;fontColor=#ee1717;fontSize=16;fontStyle=1;movable=1;rotatable=1;deletable=1;editable=1;locked=0;connectable=1;" vertex="1" parent="1">
          <mxGeometry x="527.5" y="590" width="80" height="30" as="geometry" />
        </mxCell>
        <mxCell id="xZLbCJLQWq1B9pXjwHZI-88" value="Write_Data" style="text;html=1;align=center;verticalAlign=middle;whiteSpace=wrap;rounded=0;fontSize=16;fontStyle=1;movable=1;resizable=1;rotatable=1;deletable=1;editable=1;locked=0;connectable=1;" vertex="1" parent="1">
          <mxGeometry x="437.5" y="770" width="60" height="30" as="geometry" />
        </mxCell>
        <mxCell id="xZLbCJLQWq1B9pXjwHZI-89" value="" style="rounded=0;whiteSpace=wrap;html=1;fontSize=16;fillColor=#e1d5e7;strokeColor=#9673a6;container=0;fontStyle=1;movable=1;resizable=1;rotatable=1;deletable=1;editable=1;locked=0;connectable=1;" vertex="1" parent="1">
          <mxGeometry x="217.5" y="40" width="80" height="770" as="geometry" />
        </mxCell>
        <mxCell id="xZLbCJLQWq1B9pXjwHZI-90" value="inst" style="rounded=0;whiteSpace=wrap;html=1;fontSize=16;fillColor=#d5e8d4;strokeColor=#82b366;container=0;fontStyle=1;movable=1;resizable=1;rotatable=1;deletable=1;editable=1;locked=0;connectable=1;" vertex="1" parent="1">
          <mxGeometry x="217.5" y="245" width="80" height="30" as="geometry" />
        </mxCell>
        <mxCell id="xZLbCJLQWq1B9pXjwHZI-91" value="IF/ID" style="text;html=1;align=center;verticalAlign=middle;resizable=1;points=[];autosize=1;strokeColor=none;fillColor=none;fontSize=16;container=0;fontStyle=1;movable=1;rotatable=1;deletable=1;editable=1;locked=0;connectable=1;" vertex="1" parent="1">
          <mxGeometry x="227.5" width="60" height="30" as="geometry" />
        </mxCell>
        <mxCell id="xZLbCJLQWq1B9pXjwHZI-92" value="PC" style="rounded=0;whiteSpace=wrap;html=1;fontSize=16;fillColor=#d5e8d4;strokeColor=#82b366;container=0;fontStyle=1;movable=1;resizable=1;rotatable=1;deletable=1;editable=1;locked=0;connectable=1;" vertex="1" parent="1">
          <mxGeometry x="218.5" y="480" width="80" height="30" as="geometry" />
        </mxCell>
        <mxCell id="xZLbCJLQWq1B9pXjwHZI-93" style="edgeStyle=orthogonalEdgeStyle;rounded=0;orthogonalLoop=1;jettySize=auto;html=1;exitX=1;exitY=0.75;exitDx=0;exitDy=0;entryX=-0.031;entryY=0.931;entryDx=0;entryDy=0;entryPerimeter=0;movable=1;resizable=1;rotatable=1;deletable=1;editable=1;locked=0;connectable=1;" edge="1" parent="1" source="xZLbCJLQWq1B9pXjwHZI-67" target="xZLbCJLQWq1B9pXjwHZI-79">
          <mxGeometry relative="1" as="geometry" />
        </mxCell>
        <mxCell id="xZLbCJLQWq1B9pXjwHZI-94" style="edgeStyle=orthogonalEdgeStyle;rounded=0;orthogonalLoop=1;jettySize=auto;html=1;exitX=1;exitY=0.75;exitDx=0;exitDy=0;entryX=0;entryY=0.5;entryDx=0;entryDy=0;movable=1;resizable=1;rotatable=1;deletable=1;editable=1;locked=0;connectable=1;" edge="1" parent="1" source="xZLbCJLQWq1B9pXjwHZI-95" target="xZLbCJLQWq1B9pXjwHZI-98">
          <mxGeometry relative="1" as="geometry" />
        </mxCell>
        <mxCell id="xZLbCJLQWq1B9pXjwHZI-95" value="&lt;font style=&quot;font-size: 16px;&quot;&gt;&lt;b&gt;CSRs&lt;/b&gt;&lt;/font&gt;" style="rounded=1;whiteSpace=wrap;html=1;movable=1;resizable=1;rotatable=1;deletable=1;editable=1;locked=0;connectable=1;" vertex="1" parent="1">
          <mxGeometry x="390" y="447.5" width="207.5" height="105" as="geometry" />
        </mxCell>
        <mxCell id="xZLbCJLQWq1B9pXjwHZI-96" value="Addr" style="text;html=1;align=center;verticalAlign=middle;whiteSpace=wrap;rounded=0;fontSize=16;fontStyle=1;movable=1;resizable=1;rotatable=1;deletable=1;editable=1;locked=0;connectable=1;" vertex="1" parent="1">
          <mxGeometry x="527.5" y="455" width="60" height="30" as="geometry" />
        </mxCell>
        <mxCell id="xZLbCJLQWq1B9pXjwHZI-97" value="Out" style="text;html=1;align=center;verticalAlign=middle;whiteSpace=wrap;rounded=0;fontSize=16;fontStyle=1;movable=1;resizable=1;rotatable=1;deletable=1;editable=1;locked=0;connectable=1;" vertex="1" parent="1">
          <mxGeometry x="527.5" y="510" width="60" height="30" as="geometry" />
        </mxCell>
        <mxCell id="xZLbCJLQWq1B9pXjwHZI-98" value="CSRs_OUT" style="rounded=0;whiteSpace=wrap;html=1;fontSize=16;fillColor=#d5e8d4;strokeColor=#82b366;container=0;fontStyle=1;movable=1;resizable=1;rotatable=1;deletable=1;editable=1;locked=0;connectable=1;" vertex="1" parent="1">
          <mxGeometry x="716" y="677.5" width="80" height="30" as="geometry" />
        </mxCell>
        <mxCell id="xZLbCJLQWq1B9pXjwHZI-99" value="Rs2" style="rounded=0;whiteSpace=wrap;html=1;fontSize=16;fillColor=#d5e8d4;strokeColor=#82b366;container=0;fontStyle=1;movable=1;resizable=1;rotatable=1;deletable=1;editable=1;locked=0;connectable=1;" vertex="1" parent="1">
          <mxGeometry x="717.5" y="740" width="80" height="30" as="geometry" />
        </mxCell>
        <mxCell id="xZLbCJLQWq1B9pXjwHZI-100" value="Data_In" style="text;html=1;align=center;verticalAlign=middle;whiteSpace=wrap;rounded=0;fontSize=16;fontStyle=1;movable=1;resizable=1;rotatable=1;deletable=1;editable=1;locked=0;connectable=1;" vertex="1" parent="1">
          <mxGeometry x="390" y="510" width="60" height="30" as="geometry" />
        </mxCell>
        <mxCell id="xZLbCJLQWq1B9pXjwHZI-101" style="edgeStyle=orthogonalEdgeStyle;rounded=0;orthogonalLoop=1;jettySize=auto;html=1;entryX=0.146;entryY=-0.018;entryDx=0;entryDy=0;entryPerimeter=0;dashed=1;dashPattern=1 2;strokeWidth=3;strokeColor=#FF0000;movable=1;resizable=1;rotatable=1;deletable=1;editable=1;locked=0;connectable=1;" edge="1" parent="1" target="xZLbCJLQWq1B9pXjwHZI-95">
          <mxGeometry relative="1" as="geometry">
            <Array as="points">
              <mxPoint x="420.5" y="230" />
            </Array>
            <mxPoint x="420" y="230" as="sourcePoint" />
          </mxGeometry>
        </mxCell>
        <mxCell id="xZLbCJLQWq1B9pXjwHZI-102" value="CSRs_We" style="text;html=1;align=center;verticalAlign=middle;resizable=1;points=[];autosize=1;strokeColor=none;fillColor=none;fontColor=#ee1717;fontSize=16;fontStyle=1;movable=1;rotatable=1;deletable=1;editable=1;locked=0;connectable=1;" vertex="1" parent="1">
          <mxGeometry x="327.5" y="405" width="100" height="30" as="geometry" />
        </mxCell>
        <mxCell id="xZLbCJLQWq1B9pXjwHZI-103" value="Asrc" style="rounded=0;whiteSpace=wrap;html=1;fillColor=#e51400;strokeColor=#B20000;fontColor=#ffffff;fontSize=16;fontStyle=1;movable=1;resizable=1;rotatable=1;deletable=1;editable=1;locked=0;connectable=1;" vertex="1" parent="1">
          <mxGeometry x="716" y="140" width="80" height="30" as="geometry" />
        </mxCell>
        <mxCell id="xZLbCJLQWq1B9pXjwHZI-104" value="BSrc" style="rounded=0;whiteSpace=wrap;html=1;fillColor=#e51400;strokeColor=#B20000;fontColor=#ffffff;fontSize=16;fontStyle=1;movable=1;resizable=1;rotatable=1;deletable=1;editable=1;locked=0;connectable=1;" vertex="1" parent="1">
          <mxGeometry x="716" y="170" width="80" height="30" as="geometry" />
        </mxCell>
        <mxCell id="xZLbCJLQWq1B9pXjwHZI-105" value="&quot;4&quot;" style="rounded=0;whiteSpace=wrap;html=1;fontSize=16;fillColor=#d5e8d4;strokeColor=#82b366;container=0;fontStyle=1;movable=1;resizable=1;rotatable=1;deletable=1;editable=1;locked=0;connectable=1;" vertex="1" parent="1">
          <mxGeometry x="717.5" y="707.5" width="80" height="30" as="geometry" />
        </mxCell>
        <mxCell id="xZLbCJLQWq1B9pXjwHZI-106" style="edgeStyle=orthogonalEdgeStyle;rounded=0;orthogonalLoop=1;jettySize=auto;html=1;exitX=1;exitY=0.5;exitDx=0;exitDy=0;entryX=0;entryY=0.5;entryDx=0;entryDy=0;movable=1;resizable=1;rotatable=1;deletable=1;editable=1;locked=0;connectable=1;" edge="1" parent="1" source="xZLbCJLQWq1B9pXjwHZI-109" target="xZLbCJLQWq1B9pXjwHZI-68">
          <mxGeometry relative="1" as="geometry">
            <Array as="points">
              <mxPoint x="317.5" y="715" />
              <mxPoint x="317.5" y="663" />
            </Array>
          </mxGeometry>
        </mxCell>
        <mxCell id="xZLbCJLQWq1B9pXjwHZI-107" style="edgeStyle=orthogonalEdgeStyle;rounded=0;orthogonalLoop=1;jettySize=auto;html=1;exitX=1;exitY=0.5;exitDx=0;exitDy=0;entryX=0;entryY=0.5;entryDx=0;entryDy=0;movable=1;resizable=1;rotatable=1;deletable=1;editable=1;locked=0;connectable=1;" edge="1" parent="1" source="xZLbCJLQWq1B9pXjwHZI-109" target="xZLbCJLQWq1B9pXjwHZI-69">
          <mxGeometry relative="1" as="geometry" />
        </mxCell>
        <mxCell id="xZLbCJLQWq1B9pXjwHZI-108" style="edgeStyle=orthogonalEdgeStyle;rounded=0;orthogonalLoop=1;jettySize=auto;html=1;exitX=1;exitY=0.5;exitDx=0;exitDy=0;entryX=0;entryY=0.75;entryDx=0;entryDy=0;movable=1;resizable=1;rotatable=1;deletable=1;editable=1;locked=0;connectable=1;" edge="1" parent="1" source="xZLbCJLQWq1B9pXjwHZI-109" target="xZLbCJLQWq1B9pXjwHZI-70">
          <mxGeometry relative="1" as="geometry">
            <Array as="points">
              <mxPoint x="317.5" y="715" />
              <mxPoint x="317.5" y="763" />
            </Array>
          </mxGeometry>
        </mxCell>
        <mxCell id="xZLbCJLQWq1B9pXjwHZI-109" value="inst" style="rounded=0;whiteSpace=wrap;html=1;fontSize=16;fillColor=#d5e8d4;strokeColor=#82b366;container=0;fontStyle=1;movable=1;resizable=1;rotatable=1;deletable=1;editable=1;locked=0;connectable=1;" vertex="1" parent="1">
          <mxGeometry x="217.5" y="700" width="80" height="30" as="geometry" />
        </mxCell>
        <mxCell id="xZLbCJLQWq1B9pXjwHZI-110" value="" style="endArrow=classic;html=1;rounded=0;entryX=0.5;entryY=1;entryDx=0;entryDy=0;" edge="1" parent="1" target="xZLbCJLQWq1B9pXjwHZI-88">
          <mxGeometry width="50" height="50" relative="1" as="geometry">
            <mxPoint x="468" y="880" as="sourcePoint" />
            <mxPoint x="498" y="830" as="targetPoint" />
          </mxGeometry>
        </mxCell>
        <mxCell id="xZLbCJLQWq1B9pXjwHZI-111" value="WB阶段" style="edgeLabel;html=1;align=center;verticalAlign=middle;resizable=0;points=[];fontStyle=1;fontSize=15;" vertex="1" connectable="0" parent="xZLbCJLQWq1B9pXjwHZI-110">
          <mxGeometry x="-0.2532" y="-3" relative="1" as="geometry">
            <mxPoint as="offset" />
          </mxGeometry>
        </mxCell>
        <mxCell id="xZLbCJLQWq1B9pXjwHZI-112" style="edgeStyle=orthogonalEdgeStyle;rounded=0;orthogonalLoop=1;jettySize=auto;html=1;exitX=1;exitY=0.87;exitDx=0;exitDy=0;exitPerimeter=0;entryX=0;entryY=0.25;entryDx=0;entryDy=0;dashed=1;dashPattern=1 2;strokeWidth=3;strokeColor=#FF0000;movable=1;resizable=1;rotatable=1;deletable=1;editable=1;locked=0;connectable=1;" edge="1" parent="1" source="xZLbCJLQWq1B9pXjwHZI-64" target="xZLbCJLQWq1B9pXjwHZI-79">
          <mxGeometry relative="1" as="geometry">
            <mxPoint x="587.5" y="234" as="sourcePoint" />
            <mxPoint x="705.5" y="241" as="targetPoint" />
            <Array as="points">
              <mxPoint x="640" y="203" />
              <mxPoint x="640" y="233" />
            </Array>
          </mxGeometry>
        </mxCell>
        <mxCell id="xZLbCJLQWq1B9pXjwHZI-113" value="...." style="rounded=0;whiteSpace=wrap;html=1;fillColor=#e51400;strokeColor=#B20000;fontColor=#ffffff;fontSize=16;fontStyle=1;movable=1;resizable=1;rotatable=1;deletable=1;editable=1;locked=0;connectable=1;" vertex="1" parent="1">
          <mxGeometry x="718.5" y="215" width="80" height="30" as="geometry" />
        </mxCell>
      </root>
    </mxGraphModel>
  </diagram>
</mxfile>
